<?xml version="1.0" standalone="no"?>
<!DOCTYPE svg PUBLIC "-//W3C//DTD SVG 20010904//EN"
 "http://www.w3.org/TR/2001/REC-SVG-20010904/DTD/svg10.dtd">
<svg version="1.0" xmlns="http://www.w3.org/2000/svg"
 width="513.000000pt" height="513.000000pt" viewBox="0 0 513.000000 513.000000"
 preserveAspectRatio="xMidYMid meet">
<metadata>
Created by potrace 1.14, written by Peter Selinger 2001-2017
</metadata>
<g transform="translate(0.000000,513.000000) scale(0.100000,-0.100000)"
fill="#000000" stroke="none">
<path d="M2390 5043 c-37 -3 -274 -33 -300 -38 -52 -10 -266 -68 -325 -88
-290 -100 -627 -292 -812 -463 -23 -21 -31 -22 -329 -22 -167 1 -307 -2 -310
-4 -4 -4 -12 -45 -38 -183 -3 -16 -10 -57 -16 -90 -5 -33 -12 -69 -14 -80 -7
-34 -38 -198 -42 -225 -3 -14 -9 -49 -14 -79 -6 -30 -10 -58 -10 -63 0 -4 38
-8 85 -8 47 0 85 -2 85 -4 0 -3 -13 -33 -29 -68 -66 -143 -140 -345 -156 -428
-2 -8 -10 -42 -18 -75 -8 -33 -21 -94 -27 -135 -6 -41 -14 -86 -16 -100 -17
-101 -23 -395 -10 -530 4 -41 8 -82 8 -90 1 -33 40 -239 59 -315 48 -187 147
-438 224 -568 19 -32 35 -60 35 -63 0 -20 217 -324 261 -367 21 -19 24 -63 10
-115 -7 -23 -6 -32 2 -33 7 -1 37 -2 69 -3 58 -1 74 -11 193 -123 29 -27 169
-132 242 -181 122 -82 294 -173 440 -231 91 -36 273 -96 319 -105 10 -2 55
-12 99 -21 178 -37 299 -49 505 -49 372 -1 700 69 1018 215 46 22 85 39 87 39
12 0 236 134 310 185 471 329 823 823 971 1363 14 51 27 101 29 113 2 11 6 28
9 37 3 9 8 33 11 52 3 19 7 46 10 60 23 131 27 186 30 390 4 369 -66 716 -206
1019 -26 56 -26 53 1 201 12 69 24 134 25 145 2 11 11 61 20 110 8 50 18 106
21 125 3 19 7 42 9 50 3 8 7 33 11 55 3 22 12 68 19 103 8 41 9 64 3 68 -6 4
-175 7 -375 6 l-365 0 -56 47 c-351 290 -818 494 -1251 546 -30 4 -63 9 -75
11 -24 6 -373 11 -426 7z"/>
</g>
</svg>
