<?xml version="1.0" standalone="no"?>
<!DOCTYPE svg PUBLIC "-//W3C//DTD SVG 20010904//EN"
 "http://www.w3.org/TR/2001/REC-SVG-20010904/DTD/svg10.dtd">
<svg version="1.0" xmlns="http://www.w3.org/2000/svg"
 width="658.000000pt" height="658.000000pt" viewBox="0 0 658.000000 658.000000"
 preserveAspectRatio="xMidYMid meet">
<metadata>
Created by potrace 1.14, written by Peter Selinger 2001-2017
</metadata>
<g transform="translate(0.000000,658.000000) scale(0.100000,-0.100000)"
fill="#000000" stroke="none">
<path d="M3079 6566 c-2 -2 -41 -7 -85 -10 -45 -4 -93 -9 -105 -11 -13 -2 -46
-6 -74 -10 -133 -17 -335 -63 -490 -112 -44 -14 -84 -26 -90 -27 -5 -1 -27
-10 -49 -19 -21 -9 -42 -17 -46 -17 -15 0 -218 -89 -318 -139 -243 -122 -530
-316 -690 -466 l-43 -41 1468 0 c1276 0 1468 -2 1467 -15 0 -12 -8 -58 -20
-124 -2 -11 -8 -46 -14 -77 -6 -32 -12 -70 -15 -85 -3 -16 -10 -56 -15 -90 -6
-34 -12 -68 -15 -75 -2 -7 -7 -31 -10 -53 -9 -63 -24 -158 -30 -185 -3 -14 -8
-41 -11 -60 -3 -19 -7 -41 -9 -47 -3 -10 -165 -13 -765 -13 -418 0 -760 -3
-760 -6 0 -4 -23 -136 -50 -293 -52 -293 -56 -317 -65 -373 -3 -18 -14 -80
-25 -138 -25 -134 -52 -289 -65 -370 -12 -75 -36 -211 -45 -255 -11 -57 -16
-85 -30 -170 -5 -33 -12 -71 -15 -85 -3 -14 -10 -52 -15 -85 -6 -33 -12 -73
-15 -90 -18 -97 -27 -152 -31 -170 -19 -109 -66 -374 -69 -390 -1 -11 -15 -90
-30 -175 -15 -85 -28 -162 -30 -170 -1 -8 -5 -28 -8 -45 -4 -16 -9 -43 -12
-60 -10 -67 -46 -270 -75 -435 -17 -96 -35 -200 -40 -230 -6 -30 -12 -65 -14
-76 -2 -12 -7 -37 -10 -55 -16 -102 -47 -276 -51 -289 -4 -13 -47 -15 -321
-14 l-316 0 48 -46 c41 -38 143 -125 179 -153 5 -4 24 -19 40 -32 17 -14 55
-42 85 -62 30 -21 57 -40 60 -43 11 -12 99 -70 105 -70 3 0 26 -13 50 -30 56
-39 287 -159 395 -205 294 -127 578 -203 940 -250 171 -22 621 -23 737 -1 10
2 41 7 68 10 401 52 822 195 1190 404 83 47 327 209 361 240 10 9 41 34 69 55
127 97 332 299 460 452 381 456 646 1044 724 1605 7 47 14 99 17 115 18 121
24 550 10 661 -3 27 -9 74 -12 104 -6 56 -20 148 -28 186 -2 12 -7 37 -10 55
-14 88 -68 304 -78 314 -2 2 -19 -82 -37 -188 -18 -105 -35 -201 -37 -212 -5
-26 -8 -38 -44 -250 -17 -99 -34 -193 -37 -210 -3 -16 -7 -39 -9 -50 -9 -54
-24 -143 -29 -165 -2 -13 -7 -42 -10 -63 -6 -36 -13 -79 -51 -287 -8 -47 -22
-125 -30 -174 -8 -49 -16 -92 -18 -95 -2 -3 -7 -24 -10 -46 -17 -108 -98 -376
-150 -500 -117 -279 -248 -478 -430 -660 -190 -189 -382 -308 -616 -383 -83
-26 -121 -36 -230 -57 -102 -21 -916 -29 -1080 -12 -419 45 -771 253 -974 576
-92 145 -162 345 -181 516 -4 33 -9 69 -11 80 -6 27 -6 325 -1 350 3 11 8 47
11 80 4 33 9 74 12 90 l5 30 465 0 465 0 -6 -57 c-3 -31 -8 -67 -11 -80 -3
-13 -5 -72 -5 -133 -1 -274 100 -488 270 -575 93 -47 145 -53 491 -53 337 0
394 5 495 45 48 19 137 70 161 93 7 6 25 22 40 36 38 31 123 133 156 185 95
149 165 345 207 584 11 63 23 129 26 145 4 23 50 285 70 400 2 11 10 58 19
105 8 47 18 101 21 120 4 19 13 72 21 118 8 45 20 119 28 165 8 45 17 98 21
117 3 19 7 46 10 60 3 14 7 39 10 55 3 17 7 41 10 55 11 55 14 76 19 110 3 19
8 49 11 65 3 17 19 107 35 200 39 219 50 280 60 335 5 25 12 65 16 90 3 25 8
54 10 65 3 11 7 35 10 54 5 32 8 46 18 101 3 14 8 41 10 60 3 19 8 46 11 60 3
14 19 107 36 208 l32 183 -104 102 c-185 183 -352 316 -557 447 -132 83 -360
203 -487 256 -165 68 -410 146 -535 170 -14 2 -32 7 -40 10 -8 3 -28 7 -45 10
-16 2 -41 6 -55 9 -24 6 -172 27 -275 40 -54 7 -530 17 -536 11z"/>
<path d="M387 4808 c-78 -142 -174 -377 -230 -558 -29 -94 -82 -313 -92 -375
-3 -22 -10 -65 -15 -95 -5 -30 -12 -84 -15 -120 -4 -36 -10 -101 -14 -145 -8
-85 -6 -460 3 -510 3 -16 8 -61 11 -99 3 -38 7 -71 9 -75 2 -3 7 -33 11 -66 3
-32 8 -62 10 -65 2 -3 6 -26 10 -50 10 -67 69 -292 105 -400 117 -349 294
-680 519 -970 l65 -84 12 59 c7 33 15 76 18 95 3 19 14 85 25 145 11 61 23
126 26 145 3 19 10 58 15 85 5 28 12 66 15 85 3 19 10 58 15 85 5 28 12 66 14
85 3 19 8 46 11 60 3 14 10 52 15 85 5 33 12 71 15 85 3 14 10 52 15 85 5 33
12 71 15 85 8 43 24 133 31 175 3 22 23 139 45 260 21 121 41 234 44 250 3 17
7 41 10 55 6 32 23 124 30 170 3 19 17 98 31 175 30 171 28 158 59 335 14 80
27 156 29 170 3 14 12 66 20 115 9 50 18 101 21 115 3 14 10 52 15 85 6 33 12
71 15 85 23 127 65 364 70 400 3 25 10 62 15 83 l8 37 -493 0 -493 0 -45 -82z"/>
</g>
</svg>
